<?xml version="1.0" encoding="utf-8"?>
<!-- Generator: Adobe Illustrator 19.2.0, SVG Export Plug-In . SVG Version: 6.00 Build 0)  -->
<svg version="1.1" id="Layer_1" xmlns="http://www.w3.org/2000/svg" xmlns:xlink="http://www.w3.org/1999/xlink" x="0px" y="0px"
	 viewBox="0 0 258 105.2" style="enable-background:new 0 0 258 105.2;" xml:space="preserve">
<style type="text/css">
	.st0{fill:#36BF81;}
	.st1{fill:#E09027;}
</style>
<g>
	<path class="st0" d="M37.3,15.3c0,5.2-2.1,8.8-6.4,10.7c3.9,1.3,6.6,3.7,8.1,7.1c0.5,1.3,0.8,2.9,0.8,4.7c0,5.8-3,9.6-9.1,11.5
		c-2,0.7-4.4,1-7.1,1H0.9V2.7h21.4c5.1,0,9,1.4,11.7,4.2C36.2,9.1,37.3,11.9,37.3,15.3z M6.3,24h16c4.4,0,7.4-1.5,8.9-4.5
		c0.5-1.1,0.8-2.2,0.8-3.4s-0.2-2.3-0.5-3.2s-0.9-1.8-1.6-2.5c-1.6-1.7-3.9-2.5-7-2.5H6.3V24z M24,45.3c3.3,0,5.9-0.7,7.6-2.1
		c1.8-1.4,2.7-3.3,2.7-5.8c0-2.4-0.9-4.4-2.6-5.9c-1.9-1.7-4.7-2.6-8.3-2.6H6.3v16.3L24,45.3L24,45.3z"/>
	<path class="st0" d="M72.9,50.4v-5.6c-1.3,1.7-2.9,3.2-4.8,4.4s-4,1.8-6.4,1.8s-4.5-0.3-6.2-1s-3.2-1.7-4.5-3
		c-3-2.9-4.5-6.8-4.5-11.6v-21H52v20.8c0,3.3,0.9,6,2.8,7.9c1.9,2,4.3,3,7.3,3s5.6-1,7.7-3c2.1-2.1,3.2-4.7,3.2-7.9V14.4h5.4v36
		H72.9z"/>
	<path class="st0" d="M115.8,44.6c-2.9,4.2-7.2,6.3-12.9,6.3c-5.2,0-9.4-1.8-12.7-5.4c-3.2-3.6-4.8-7.9-4.8-13.2
		c0-5.2,1.6-9.6,4.8-13.2c3.3-3.6,7.6-5.4,13-5.4s9.6,2.1,12.5,6.4V0h5.4v50.4h-5.4L115.8,44.6L115.8,44.6z M103.6,46.1
		c3.9,0,7-1.3,9.2-4c2.2-2.5,3.2-5.8,3.2-9.6s-1.1-7.1-3.2-9.6c-2.3-2.7-5.3-4-9.2-4c-3.8,0-7,1.3-9.4,4c-2.3,2.5-3.4,5.8-3.4,9.6
		s1.1,7.1,3.4,9.6C96.6,44.7,99.8,46.1,103.6,46.1z"/>
	<path class="st0" d="M158.6,20.2v-5.8h5.4v34.9c0,5.2-1.5,9.1-4.4,11.8c-3,2.7-6.9,4.1-11.9,4.1s-8.9-1-11.7-2.9s-4.7-4.5-5.7-7.6
		h6c1.5,3.7,5,5.6,10.5,5.6c4.2,0,7.2-1,9.1-2.9c1.9-1.9,2.8-4.8,2.8-8.5v-5c-2.9,4.3-7.2,6.4-12.9,6.4c-5.2,0-9.4-1.8-12.7-5.3
		c-3.2-3.5-4.8-7.8-4.8-13s1.6-9.5,4.8-13c3.3-3.6,7.6-5.3,13.1-5.3C151.6,13.8,155.7,15.9,158.6,20.2z M146.4,45.5
		c2,0,3.7-0.3,5.3-1c1.5-0.7,2.9-1.6,4-2.8c2.2-2.5,3.2-5.7,3.2-9.5s-1.1-7-3.2-9.5c-2.4-2.6-5.4-3.9-9.2-3.9c-3.9,0-7,1.3-9.4,3.9
		c-2.3,2.5-3.4,5.7-3.4,9.5s1.1,7,3.4,9.5S142.6,45.5,146.4,45.5z"/>
	<path class="st0" d="M189.4,46.1c4.8,0,8.3-2,10.4-6h5.9c-1.2,3.3-3.2,5.9-5.9,7.9s-6.2,3-10.5,3c-5.4,0-9.8-1.8-13.2-5.4
		c-3.3-3.5-5-7.9-5-13.2s1.6-9.7,4.8-13.2c3.4-3.6,7.7-5.4,13.1-5.4c5.4,0,9.7,1.8,13.1,5.4c3.2,3.5,4.8,7.8,4.8,13.2v2.2h-30.2
		c0.4,3.3,1.7,6,4,8.2C182.9,45,185.9,46.1,189.4,46.1z M189,18.7c-3.3,0-6.1,1-8.4,3.1c-2.1,2-3.4,4.5-3.9,7.7h24.5
		c-0.5-3.2-1.8-5.7-3.9-7.7C195.1,19.8,192.3,18.7,189,18.7z"/>
	<path class="st0" d="M216.9,50.4V19.2h-7.3v-4.8h7.3V1.5h5.4v12.9h8.3v4.8h-8.3v31.2H216.9z"/>
</g>
<g>
	<path class="st1" d="M88.5,57.6v47.7h-5.4V65.8L65.5,88.5l-18-22.7v39.5h-5.4V57.6h6.3l17.1,22.6l16.8-22.6H88.5z"/>
	<path class="st1" d="M126.5,99.5c-2.9,4.2-7.2,6.3-12.9,6.3c-5.2,0-9.4-1.8-12.7-5.4c-3.2-3.6-4.8-7.9-4.8-13.2
		c0-5.2,1.6-9.6,4.8-13.2c3.3-3.6,7.6-5.4,13-5.4s9.6,2.1,12.5,6.4v-5.8h5.4v36h-5.4L126.5,99.5L126.5,99.5z M114.3,100.9
		c3.9,0,7-1.3,9.2-4c2.2-2.5,3.2-5.8,3.2-9.6c0-3.9-1.1-7.1-3.2-9.6c-2.3-2.7-5.3-4-9.2-4c-3.8,0-7,1.3-9.4,4
		c-2.3,2.5-3.4,5.8-3.4,9.6c0,3.9,1.1,7.1,3.4,9.6C107.3,99.6,110.5,100.9,114.3,100.9z"/>
	<path class="st1" d="M162.4,78.9c-0.5-3.7-3.5-5.6-9-5.6s-8.3,1.7-8.3,5.2c0,1.4,0.6,2.5,1.8,3.3c1.2,0.7,2.7,1.4,4.4,1.8
		c1.8,0.5,3.7,0.9,5.8,1.3s4,1,5.8,1.7s3.3,1.8,4.4,3.1c1.2,1.3,1.8,3.1,1.8,5.3c0,3.5-1.3,6.2-4,8c-2.6,1.8-6.2,2.8-10.7,2.8
		c-4.8,0-8.6-1.2-11.4-3.6c-2.6-2.1-4-4.9-4.2-8.3h5.6c0.3,3.3,2.2,5.5,5.6,6.7c1.2,0.4,2.5,0.6,3.7,0.6s2.4-0.1,3.4-0.2
		c1.1-0.1,2.1-0.4,3.1-0.8c2.3-0.9,3.5-2.5,3.5-4.7c0-1.5-0.6-2.6-1.8-3.4s-2.7-1.4-4.4-1.9c-1.8-0.5-3.7-1-5.8-1.4s-4-1-5.8-1.7
		s-3.3-1.7-4.4-3c-1.2-1.2-1.8-3-1.8-5.2c0-3.3,1.2-5.8,3.6-7.6s5.9-2.7,10.5-2.7c4.4,0,7.9,1.1,10.4,3.2c2.1,1.8,3.3,4.1,3.7,7.1
		C167.9,78.9,162.4,78.9,162.4,78.9z"/>
	<path class="st1" d="M179.8,105.2V74h-7.3v-4.8h7.3V56.4h5.4v12.9h8.3V74h-8.3v31.2H179.8z"/>
	<path class="st1" d="M214.7,100.9c4.8,0,8.3-2,10.4-6h5.9c-1.2,3.3-3.2,5.9-5.9,7.9s-6.2,3-10.5,3c-5.4,0-9.8-1.8-13.2-5.4
		c-3.3-3.5-5-7.9-5-13.2c0-5.3,1.6-9.7,4.8-13.2c3.4-3.6,7.7-5.4,13.1-5.4s9.7,1.8,13.1,5.4c3.2,3.5,4.8,7.8,4.8,13.2v2.2H202
		c0.4,3.3,1.7,6,4,8.2C208.2,99.8,211.2,100.9,214.7,100.9z M214.3,73.6c-3.3,0-6.1,1-8.4,3.1c-2.1,2-3.4,4.5-3.9,7.7h24.5
		c-0.5-3.2-1.8-5.7-3.9-7.7C220.4,74.6,217.6,73.6,214.3,73.6z"/>
	<path class="st1" d="M257.8,68.7v5.4h-0.6c-3.9,0-7.1,1.6-9.5,4.7c-2.3,3-3.5,6.5-3.5,10.7v15.8h-5.4v-36h5.4v8.9
		c1.2-3.7,3.6-6.5,7.5-8.3c1.6-0.8,3.5-1.2,5.8-1.2H257.8z"/>
</g>
</svg>
