<svg id="Layer_1" data-name="Layer 1" xmlns="http://www.w3.org/2000/svg" viewBox="0 0 452.54 81.22"><defs><style>.cls-1,.cls-3{fill:#fff;stroke:#fff;}.cls-1,.cls-2,.cls-3{stroke-miterlimit:10;}.cls-1,.cls-2{stroke-width:2px;}.cls-2{fill:#597b48;stroke:#597b48;}.cls-3{stroke-width:0.5px;}</style></defs><title>budget-logo</title><path class="cls-1" d="M8.4,24.85q3.66-5.34,10.74-5.34A13.42,13.42,0,0,1,29.64,24a15.76,15.76,0,0,1,4,11,15.76,15.76,0,0,1-4,11,13.8,13.8,0,0,1-10.83,4.5A11.82,11.82,0,0,1,8.4,45.19V50H3.9V8H8.4V24.85ZM18.54,46.39A10,10,0,0,0,26.34,43a11.67,11.67,0,0,0,2.82-8,11.67,11.67,0,0,0-2.82-8,10,10,0,0,0-7.8-3.36,9.5,9.5,0,0,0-7.68,3.36,12,12,0,0,0-2.7,8,12,12,0,0,0,2.7,8A9.5,9.5,0,0,0,18.54,46.39Z" transform="translate(-2.9 -2.84)"/><path class="cls-1" d="M61.2,50V45.31a15.05,15.05,0,0,1-4,3.66,9.68,9.68,0,0,1-5.34,1.5,14.24,14.24,0,0,1-5.16-.84A10.46,10.46,0,0,1,43,47.11a12.94,12.94,0,0,1-3.72-9.66V20h4.5V37.33a9.18,9.18,0,0,0,2.34,6.6,8,8,0,0,0,6.06,2.46,9,9,0,0,0,6.42-2.52,8.83,8.83,0,0,0,2.64-6.6V20h4.5V50H61.2Z" transform="translate(-2.9 -2.84)"/><path class="cls-1" d="M96.9,45.19q-3.6,5.28-10.74,5.28A13.6,13.6,0,0,1,75.6,46a15.89,15.89,0,0,1-4-11,15.9,15.9,0,0,1,4-11,14,14,0,0,1,10.86-4.5A11.9,11.9,0,0,1,96.9,24.85V8h4.5V50H96.9v-4.8Zm-10.14,1.2A9.5,9.5,0,0,0,94.44,43a12,12,0,0,0,2.7-8,12,12,0,0,0-2.7-8,9.5,9.5,0,0,0-7.68-3.36A10,10,0,0,0,79,26.95a11.67,11.67,0,0,0-2.82,8A11.67,11.67,0,0,0,79,43,10,10,0,0,0,86.76,46.39Z" transform="translate(-2.9 -2.84)"/><path class="cls-1" d="M132.6,24.79V20h4.5v29.1q0,6.48-3.69,9.87t-9.93,3.39q-6.24,0-9.75-2.4A11.89,11.89,0,0,1,109,53.59h5q1.92,4.68,8.76,4.68,5.22,0,7.56-2.4t2.34-7.08V44.65Q128.94,50,121.86,50a13.68,13.68,0,0,1-10.56-4.44,15.37,15.37,0,0,1-4-10.8,15.37,15.37,0,0,1,4-10.8,14.08,14.08,0,0,1,10.89-4.44A11.83,11.83,0,0,1,132.6,24.79ZM122.46,45.91a10.5,10.5,0,0,0,4.38-.87,10.08,10.08,0,0,0,3.3-2.37,11.67,11.67,0,0,0,2.7-7.92,11.67,11.67,0,0,0-2.7-7.92,9.88,9.88,0,0,0-7.68-3.24,10,10,0,0,0-7.8,3.24,11.5,11.5,0,0,0-2.82,7.92,11.5,11.5,0,0,0,2.82,7.92A10,10,0,0,0,122.46,45.91Z" transform="translate(-2.9 -2.84)"/><path class="cls-1" d="M158.28,46.39q6.06,0,8.7-5h4.92a14.48,14.48,0,0,1-4.95,6.6,14.25,14.25,0,0,1-8.73,2.52,14.51,14.51,0,0,1-11-4.5A15.35,15.35,0,0,1,143,35a15.62,15.62,0,0,1,4-11,15.5,15.5,0,0,1,21.84,0,15.62,15.62,0,0,1,4,11v1.8H147.66a10.88,10.88,0,0,0,3.3,6.84A10.15,10.15,0,0,0,158.28,46.39Zm-0.36-22.8a9.93,9.93,0,0,0-7,2.58,10.65,10.65,0,0,0-3.24,6.42h20.4a10.66,10.66,0,0,0-3.24-6.42A9.93,9.93,0,0,0,157.92,23.59Z" transform="translate(-2.9 -2.84)"/><path class="cls-1" d="M181.2,50v-26h-6.12V20h6.12V9.25h4.5V20h6.9v4h-6.9V50h-4.5Z" transform="translate(-2.9 -2.84)"/><path class="cls-2" d="M269.47,27.87a3.13,3.13,0,0,1-.11.73q-0.11.44-.29,1t-0.41,1a6,6,0,0,1-.52.94q-0.54.83-1.41,1.9t-1.92,2.24q-1,1.16-2.24,2.32t-2.33,2.11q-0.92.76-2.13,1.68a26.6,26.6,0,0,1-2.54,1.71,17,17,0,0,1-2.73,1.32,7.51,7.51,0,0,1-2.63.52,6,6,0,0,1-2-.32,3.86,3.86,0,0,1-1.65-1.19,8,8,0,0,1-1.32-2.4,22.07,22.07,0,0,1-1-3.94q-0.19-1-.33-2.17L243.62,33q-0.14-1.14-.27-2.21T243,28.93a7.17,7.17,0,0,0-.38-1.29,0.62,0.62,0,0,0-.46-0.48,2.08,2.08,0,0,0-1.16.7,16.5,16.5,0,0,0-1.75,2q-1,1.32-2.19,3.16t-2.49,4.13a67.56,67.56,0,0,1-4.35,7Q228.5,46.5,227,46.5a2.9,2.9,0,0,1-3-2.06,27.45,27.45,0,0,1-.86-7,38.91,38.91,0,0,0-.68-7.38Q222,27.45,221,27.45a3.08,3.08,0,0,0-1.67,1,23.75,23.75,0,0,0-2.48,2.84q-1.38,1.81-3,4.27t-3.24,5.35l-1,1.75-1.16,2q-0.59,1-1.14,1.89t-1,1.46a2.66,2.66,0,0,1-2.22,1.33A3.1,3.1,0,0,1,201,46.88q-0.19-.63-0.3-1a6.75,6.75,0,0,1-.25-1.67q0-.48,0-1.24,0-1.27.08-2.33t0.21-2.14q0.13-1.08.32-2.32t0.38-2.89q0.16-1.36.29-2.92t0.24-3q0.11-1.48.22-2.71a12.6,12.6,0,0,1,.3-2,2.88,2.88,0,0,1,.44-0.89,6.85,6.85,0,0,1,.81-1,6.11,6.11,0,0,1,1-.79,1.7,1.7,0,0,1,.89-0.33,1.86,1.86,0,0,1,1.09.3,2.27,2.27,0,0,1,.7.81,3.85,3.85,0,0,1,.38,1.19,8.77,8.77,0,0,1,.11,1.41,16,16,0,0,1-.14,1.9q-0.14,1.14-.37,2.48t-0.49,2.76q-0.27,1.43-.52,2.73t-0.46,2.4q-0.21,1.09-.3,1.79-0.29,1.75-.38,2.78t-0.1,1.67a13.31,13.31,0,0,0,1-1.24q0.63-.82,1.4-1.94t1.6-2.44q0.84-1.33,1.7-2.73l1.35-2.22q0.75-1.24,1.56-2.49t1.6-2.36q0.79-1.11,1.46-1.87a10.52,10.52,0,0,1,2.76-2.32,6.06,6.06,0,0,1,3-.79,3.54,3.54,0,0,1,2.65,1.19,6.14,6.14,0,0,1,1.51,3.09,18.28,18.28,0,0,1,.3,2q0.11,1.16.21,2.43t0.17,2.54q0.08,1.27.17,2.41a12.77,12.77,0,0,0,.27,1.84,6.85,6.85,0,0,0,.36,1.16,2.36,2.36,0,0,0,.35.6,0.43,0.43,0,0,0,.25.17q0.6,0,2-2.51l1.62-2.82,2-3.43q1.08-1.84,2.32-3.55a35.87,35.87,0,0,1,2.43-3,15.9,15.9,0,0,1,2.24-2.09,3.22,3.22,0,0,1,1.78-.78,5.34,5.34,0,0,1,1,.1,5.25,5.25,0,0,1,1,.29,3.79,3.79,0,0,1,.84.46,2.08,2.08,0,0,1,.56.59,5.33,5.33,0,0,1,.68,1.73,16.85,16.85,0,0,1,.3,2.22q0.1,1.25.17,2.79T248,32.31a19.37,19.37,0,0,0,1.38,5.92,2.92,2.92,0,0,0,2.68,2,4.41,4.41,0,0,0,1.68-.44,16.79,16.79,0,0,0,2.16-1.16q1.14-.71,2.32-1.62t2.19-1.79q1-.89,2-1.79l1.89-1.84q1-.94,2-2l2.14-2.16A1.06,1.06,0,0,1,269,27Q269.47,27,269.47,27.87Z" transform="translate(-2.9 -2.84)"/><path class="cls-2" d="M308.51,32.82a0.17,0.17,0,0,1,.1-0.06,0.29,0.29,0,0,1,.16.27,3.14,3.14,0,0,1,.06.68,5.24,5.24,0,0,1-.13,1.1,4,4,0,0,1-.38,1.06,24.06,24.06,0,0,1-4.92,4.49,44.52,44.52,0,0,1-5.9,3.44q-1.24.57-2.29,1a17.62,17.62,0,0,1-2,.7,14.17,14.17,0,0,1-2,.4A17.64,17.64,0,0,1,289,46a5.55,5.55,0,0,1-2.43-.54,5.26,5.26,0,0,1-2-1.73,9.22,9.22,0,0,1-1.35-3.08,18.4,18.4,0,0,1-.49-4.59,38,38,0,0,1-3.65,4.57,46.34,46.34,0,0,1-4.14,4,25.49,25.49,0,0,1-4,2.79,6.87,6.87,0,0,1-3.13,1,5.16,5.16,0,0,1-2.36-.51,4.8,4.8,0,0,1-1.63-1.32,5.69,5.69,0,0,1-1-1.81,6.43,6.43,0,0,1-.32-2q0-.51,0-1.25t0.13-1.52q0.1-.78.24-1.54a10.12,10.12,0,0,1,.33-1.33,26.87,26.87,0,0,1,1.52-4,44.83,44.83,0,0,1,5-8.22,39.69,39.69,0,0,1,3-3.54,24.8,24.8,0,0,1,3.09-2.73,11.16,11.16,0,0,1,3-1.62,6.71,6.71,0,0,1,1-.38q0.62-.19,1.32-0.33t1.32-.24a6.88,6.88,0,0,1,1-.1,2.37,2.37,0,0,1,1.3.36,3.52,3.52,0,0,1,1,1,4.33,4.33,0,0,1,.62,1.32,5.23,5.23,0,0,1,.21,1.43A2.53,2.53,0,0,1,287.5,20a3.18,3.18,0,0,1,1.49.36,1.17,1.17,0,0,1,.7,1.1,4.6,4.6,0,0,1-.11.89q-0.11.54-.27,1.21t-0.38,1.36l-0.41,1.3a14.87,14.87,0,0,0-.43,1.67q-0.21,1-.38,2.09t-0.27,2.16q-0.1,1.06-.1,1.86a12.65,12.65,0,0,0,.94,5.63,3.46,3.46,0,0,0,3.35,1.76,8.73,8.73,0,0,0,2.22-.36,27.54,27.54,0,0,0,2.86-1q1.52-.6,3.17-1.44t3.24-1.79q1.59-1,3-2A23.84,23.84,0,0,0,308.51,32.82Zm-30.72,3.81A30,30,0,0,0,279.91,34a36.9,36.9,0,0,0,2.19-3.44,30.91,30.91,0,0,0,1.84-3.87,20.79,20.79,0,0,0,1.14-4,2.61,2.61,0,0,0-1-1.59,2.79,2.79,0,0,0-1.52-.44,5.41,5.41,0,0,0-1.83.33,17.36,17.36,0,0,0-1.67.68,8.77,8.77,0,0,0-2.14,1.63,31.88,31.88,0,0,0-2.54,2.83,42.52,42.52,0,0,0-2.57,3.57q-1.25,1.94-2.25,3.87a28.28,28.28,0,0,0-1.62,3.73,9.85,9.85,0,0,0-.62,3.16,4.48,4.48,0,0,0,.14,1.08,6.28,6.28,0,0,0,.37,1.06,3.11,3.11,0,0,0,.51.81,0.79,0.79,0,0,0,.57.32,3.3,3.3,0,0,0,1.22-.52,20.64,20.64,0,0,0,2.13-1.46q1.22-.94,2.67-2.24T277.79,36.63Z" transform="translate(-2.9 -2.84)"/><path class="cls-2" d="M344.25,28.09a4.29,4.29,0,0,1-.7,1.68,57.75,57.75,0,0,1-3.7,4.76,56.73,56.73,0,0,1-4.35,4.52,57.31,57.31,0,0,1-4.79,4,39.29,39.29,0,0,1-5,3.21,26.44,26.44,0,0,1-5.06,2.08,16.67,16.67,0,0,1-4.87.7q-5.08,0-7.89-3T305,37.17a30.89,30.89,0,0,1,1.54-9.68,26.84,26.84,0,0,1,5.25-9A13.89,13.89,0,0,1,313.41,17a13.31,13.31,0,0,1,1.84-1.24,10.37,10.37,0,0,1,2-.86,8.89,8.89,0,0,1,2.08-.38,5.32,5.32,0,0,1,.7.06,6.18,6.18,0,0,1,1,.22,6.54,6.54,0,0,1,1,.4,2.26,2.26,0,0,1,.76.59,9.49,9.49,0,0,1,1.41,2.09,6.09,6.09,0,0,1,.59,2.38,9.13,9.13,0,0,1-.33,2.87A11,11,0,0,1,323.06,26a19.3,19.3,0,0,1-2.46,3,49,49,0,0,1-3.68,3.38l-3,2.52a42.94,42.94,0,0,1-4,2.9,5.85,5.85,0,0,0,1.86,4.68,7.54,7.54,0,0,0,5.09,1.6,14.54,14.54,0,0,0,3.65-.48,24.05,24.05,0,0,0,3.62-1.25,30.35,30.35,0,0,0,3.44-1.78q1.67-1,3.13-2,2.7-2,4.89-3.92t4.35-4.11l1.71-1.71a4.54,4.54,0,0,1,2.25-1.36Q344.25,27.49,344.25,28.09ZM320,21.77a5.57,5.57,0,0,0-.14-0.94,2.68,2.68,0,0,0-.33-0.81,2,2,0,0,0-.51-0.56,1.11,1.11,0,0,0-.67-0.21,5,5,0,0,0-3.37,2,22.4,22.4,0,0,0-3.17,5.16,10.39,10.39,0,0,0-.62,1.57q-0.27.87-.51,1.78t-0.41,1.79q-0.17.89-.3,1.59l3-2.29a33.5,33.5,0,0,0,2.6-2.16q0.76-.7,1.56-1.51a15.71,15.71,0,0,0,1.44-1.7,8.39,8.39,0,0,0,1-1.84A4.76,4.76,0,0,0,320,21.77Z" transform="translate(-2.9 -2.84)"/><path class="cls-2" d="M372.43,27a2.72,2.72,0,0,1-.29,1.13,8,8,0,0,1-.76,1.29,16.9,16.9,0,0,1-1.08,1.35l-1.21,1.35q-0.48.54-1,1.09l-1.22,1.24-1.6,1.59-2.16,2.11q-1.11,1.08-2.46,2.27t-2.73,2.33L355.23,45q-1.3,1-2.25,1.84l-4.35,3.54q-2.06,1.67-4.06,3-4,2.67-6.29,2.67a5.13,5.13,0,0,1-1.84-.41,1.33,1.33,0,0,1-1.08-1.14,3.83,3.83,0,0,1,1.56-3.24,23.09,23.09,0,0,1,4.76-2.41,21,21,0,0,0,4.76-2.48A3.92,3.92,0,0,0,348,43q0-1-2.19-4.25-1.08-1.62-1.92-3t-1.44-2.43a9.65,9.65,0,0,1-1.21-4.67,14,14,0,0,1,.79-4.48,10.59,10.59,0,0,1,1.22-2.68,16,16,0,0,1,1.83-2.41,9.91,9.91,0,0,1,2-1.7,3.23,3.23,0,0,1,1.78-.6q2.79,0,2.79,3.3a4,4,0,0,1-.92,2.48,12,12,0,0,1-1.08,1.19q-0.64.62-1.46,1.32t-1.35,1.17q-0.56.51-.9,0.86A9.56,9.56,0,0,0,347,31q0.54,1.08,1.24,2.35t1.62,2.73q0.92,1.46,1.56,2.62t1,1.7a0.32,0.32,0,0,0,.35.13,3.82,3.82,0,0,0,1.54-.65q1.09-.65,2.6-1.75t3.28-2.54q1.78-1.44,3.55-3.06t3-2.89L369,27.36q1.08-1.08,1.6-1.67a3.06,3.06,0,0,1,.59-0.59,0.72,0.72,0,0,1,.48.19,1.89,1.89,0,0,1,.4.49,2.79,2.79,0,0,1,.27.63A2.26,2.26,0,0,1,372.43,27Z" transform="translate(-2.9 -2.84)"/><path class="cls-2" d="M401.06,22.53a2.75,2.75,0,0,1-.16,1,2,2,0,0,1-.44.7,3.72,3.72,0,0,1-.67.52q-0.38.24-.79,0.46a12.57,12.57,0,0,1-2.49.79q-1.44.32-3,.56t-3,.41q-1.51.18-2.75,0.37-2.32.35-4.09,0.56t-3.08.4a20.83,20.83,0,0,0-2.16.41,3.56,3.56,0,0,0-1.37.63q-0.67,2.89-1.38,5.86t-1.22,5.57l-0.21.94-0.24,1q-0.22,1.11-.35,2a10.85,10.85,0,0,0-.13,1.6,5.64,5.64,0,0,0,.22,1.75q0.13,0.35.29,0.9c0.11,0.37.24,0.8,0.41,1.29a7.78,7.78,0,0,1,.51,2.13,3.88,3.88,0,0,1-.83,2.19,2.2,2.2,0,0,1-1.78,1.17,3,3,0,0,1-2.16-1.59,16.57,16.57,0,0,1-1-1.57A15.94,15.94,0,0,1,368.5,51a9.39,9.39,0,0,1-.51-3c0-.21,0-0.43,0-0.65s0.05-.46.1-0.71q0.13-.7.38-1.75,0.13-.51.21-0.87c0.05-.24.1-0.44,0.14-0.59q0.76-3.52,1.29-5.9t0.78-3.71a33.91,33.91,0,0,0,.67-3.36,0.91,0.91,0,0,0-.37-0.78,1.43,1.43,0,0,0-.87-0.27q-0.6,0-1.36,0t-1.68.17q-0.92.13-1.52,0.17t-0.89,0a5.9,5.9,0,0,1-2.08-.35,4.68,4.68,0,0,1-1.62-1,4.58,4.58,0,0,1-1.06-1.55,5.23,5.23,0,0,1-.38-2q0.89,0.13,1.82.17t2,0q0.44,0,1.35,0t2.27-.17q1.4-.13,2.4-0.19t1.63-.06q0.76,0,1.68-2.35,0.44-1.21.84-2.44t0.71-2.57q0.35-1.33.59-2.36t0.4-1.76q0.06-.19.29-1.4,0.16-.63.27-1.19t0.17-1q0.22-1.21.49-2.22a13.78,13.78,0,0,1,.62-1.84,2.35,2.35,0,0,1,2.25-1.65q2.35,0,2.35,2.6a11.93,11.93,0,0,1-.7,3.71q-3,9.62-3,11.74a1,1,0,0,0,1.17,1.17q2.89,0,5.86-.14t5.76-.4q1.46-.13,2.59-0.27l2.08-.29,1.83-.27,1.86-.25,0.49,0a1.58,1.58,0,0,1,.59.08,1.22,1.22,0,0,1,.51.33A1,1,0,0,1,401.06,22.53Z" transform="translate(-2.9 -2.84)"/><path class="cls-2" d="M425,24.38c0,0.13,0,.31,0,0.56a3.06,3.06,0,0,1-.16.73,3.4,3.4,0,0,1-.3.65,0.52,0.52,0,0,1-.46.29l-0.63,0-0.94,0-0.94,0-0.63,0a15,15,0,0,0-10.09,4.44,34,34,0,0,0-6.86,10.6q-0.54,1.37-1.06,2.82t-1,3.08a13.94,13.94,0,0,0-.37,1.57,9.25,9.25,0,0,1-.37,1.44,0.92,0.92,0,0,1-.54.49,7.73,7.73,0,0,1-1.06.43q-0.59.19-1.13,0.32a4,4,0,0,1-.73.13q-2.19.13-2.48-4.54-0.1-1.27-.08-2.3t0.08-2q0.06-1,.17-2t0.24-2.4q0.16-1.65.38-3.81t0.51-4.35q0.28-2.19.6-4.17a33,33,0,0,1,.67-3.28,5.31,5.31,0,0,1,1-2.22,2.44,2.44,0,0,1,1.83-.79,1.59,1.59,0,0,1,.68.17,2.59,2.59,0,0,1,.67.46,3.39,3.39,0,0,1,.51.6,1.41,1.41,0,0,1,.24.57,16.14,16.14,0,0,1,0,1.73q-0.06.94-.22,1.94t-0.38,2q-0.22,1-.44,1.94-0.45,1.81-.68,3.09t-0.4,2.49q-0.16,1.21-.32,2.59t-0.41,3.41q0.54-1.21.94-2.06t0.71-1.51q0.32-.65.59-1.16t0.59-1.06l0.7-1.22q0.38-.67,1-1.62a27.15,27.15,0,0,1,4.76-6,18,18,0,0,1,4.89-3.35,12.43,12.43,0,0,1,4.38-1.36,13.54,13.54,0,0,1,2,.1,10.65,10.65,0,0,1,2.19.48,6.35,6.35,0,0,1,1.79.9A1.64,1.64,0,0,1,425,24.38Z" transform="translate(-2.9 -2.84)"/><path class="cls-2" d="M454.44,28.79a18.55,18.55,0,0,1-.1,1.94,15.36,15.36,0,0,1-.29,1.78,14,14,0,0,1-.51,1.73,19.44,19.44,0,0,1-.76,1.79,10.45,10.45,0,0,1-1.62,2.35,30.4,30.4,0,0,1-2.81,2.82q-1.63,1.46-3.59,2.89a42.08,42.08,0,0,1-4,2.57,25.54,25.54,0,0,1-3.92,1.84,10.28,10.28,0,0,1-3.48.7,9,9,0,0,1-3.71-.71A7.61,7.61,0,0,1,425.51,44a9.06,9.06,0,0,1-.52-3,12.2,12.2,0,0,1,.25-2.32q0.25-1.3.67-2.7t1-2.86q0.57-1.46,1.21-2.79t1.3-2.48a15.94,15.94,0,0,1,1.3-1.94,19.69,19.69,0,0,1,2.68-2.73,20.88,20.88,0,0,1,3.44-2.36,20.2,20.2,0,0,1,4-1.67,15.51,15.51,0,0,1,4.43-.63,7.33,7.33,0,0,1,3.36.84,10.1,10.1,0,0,1,2.94,2.27,11.75,11.75,0,0,1,2.08,3.3A9.92,9.92,0,0,1,454.44,28.79Zm-5,.92a6.62,6.62,0,0,0-1.79-4.92A7,7,0,0,0,442.54,23a5,5,0,0,0-2.32.6A12.62,12.62,0,0,0,438,25.1,18.79,18.79,0,0,0,436,27q-0.9,1-1.51,1.79A17.61,17.61,0,0,0,433.14,31q-0.73,1.41-1.38,3a27,27,0,0,0-1.08,3.21,11.06,11.06,0,0,0-.43,2.81,4.09,4.09,0,0,0,.29,1.48,4.28,4.28,0,0,0,.81,1.33,4.37,4.37,0,0,0,1.25,1,3.45,3.45,0,0,0,1.62.38,7.32,7.32,0,0,0,2.46-.57,21.16,21.16,0,0,0,3.21-1.57,28.55,28.55,0,0,0,3.41-2.38,23.1,23.1,0,0,0,3.09-3,15.76,15.76,0,0,0,2.24-3.4A8.17,8.17,0,0,0,449.49,29.71Z" transform="translate(-2.9 -2.84)"/><path class="cls-3" d="M60.37,72.54A3.64,3.64,0,0,1,63.6,71a4,4,0,0,1,3.15,1.35,5.1,5.1,0,0,1,0,6.59,4.13,4.13,0,0,1-3.24,1.35,3.57,3.57,0,0,1-3.13-1.6v5H59V71.1h1.35v1.44Zm3-.36a2.85,2.85,0,0,0-2.3,1,4,4,0,0,0,0,4.82,2.85,2.85,0,0,0,2.3,1,3,3,0,0,0,2.34-1,3.86,3.86,0,0,0,0-4.82A3,3,0,0,0,63.42,72.18Z" transform="translate(-2.9 -2.84)"/><path class="cls-3" d="M73.73,79a2.72,2.72,0,0,0,2.61-1.51h1.48a4.34,4.34,0,0,1-1.48,2,4.28,4.28,0,0,1-2.62.76,4.35,4.35,0,0,1-3.31-1.35,4.61,4.61,0,0,1-1.24-3.29,4.69,4.69,0,0,1,1.19-3.29,4.65,4.65,0,0,1,6.55,0,4.69,4.69,0,0,1,1.19,3.29v0.54H70.54a3.26,3.26,0,0,0,1,2.05A3,3,0,0,0,73.73,79Zm-0.11-6.84a3,3,0,0,0-2.09.77,3.2,3.2,0,0,0-1,1.93h6.12a3.2,3.2,0,0,0-1-1.93A3,3,0,0,0,73.62,72.18Z" transform="translate(-2.9 -2.84)"/><path class="cls-3" d="M84.49,71v1.35H84.33A2.88,2.88,0,0,0,82,73.48a4.23,4.23,0,0,0-.86,2.66v4H79.74v-9h1.35v2.21A3.41,3.41,0,0,1,84.4,71h0.09Z" transform="translate(-2.9 -2.84)"/><path class="cls-3" d="M91.24,73.51q-0.18-1.4-2.26-1.4t-2.08,1.3a0.91,0.91,0,0,0,.44.82,4,4,0,0,0,1.11.46q0.67,0.18,1.45.33a7.42,7.42,0,0,1,1.45.43,3.07,3.07,0,0,1,1.11.77,1.91,1.91,0,0,1,.44,1.33,2.3,2.3,0,0,1-1,2,4.6,4.6,0,0,1-2.68.69,4.28,4.28,0,0,1-2.86-.9,2.76,2.76,0,0,1-1-2.07h1.4a1.87,1.87,0,0,0,1.4,1.67,3.12,3.12,0,0,0,.93.14A6.48,6.48,0,0,0,89.91,79a3.51,3.51,0,0,0,.77-0.2,1.2,1.2,0,0,0,.86-1.17,1,1,0,0,0-.44-0.86A3.9,3.9,0,0,0,90,76.33q-0.67-.19-1.45-0.34a7.85,7.85,0,0,1-1.45-.42A3.09,3.09,0,0,1,86,74.83a1.82,1.82,0,0,1-.44-1.3,2.24,2.24,0,0,1,.89-1.9A4.33,4.33,0,0,1,89.08,71a4,4,0,0,1,2.61.79,2.6,2.6,0,0,1,.92,1.76H91.24Z" transform="translate(-2.9 -2.84)"/><path class="cls-3" d="M98.53,71a4.28,4.28,0,0,1,3.28,1.35,5.16,5.16,0,0,1,0,6.59,4.65,4.65,0,0,1-6.55,0,5.16,5.16,0,0,1,0-6.59A4.28,4.28,0,0,1,98.53,71Zm0,8.06a2.85,2.85,0,0,0,2.3-1,4,4,0,0,0,0-4.82,3.14,3.14,0,0,0-4.61,0,4,4,0,0,0,0,4.82A2.85,2.85,0,0,0,98.53,79Z" transform="translate(-2.9 -2.84)"/><path class="cls-3" d="M106.13,71.1v1.4a4.53,4.53,0,0,1,1.19-1.1,2.9,2.9,0,0,1,1.6-.45,4.27,4.27,0,0,1,1.55.25,3.15,3.15,0,0,1,1.13.76,3.89,3.89,0,0,1,1.12,2.9V80.1h-1.35V74.9a2.76,2.76,0,0,0-.7-2,2.4,2.4,0,0,0-1.82-.74,2.69,2.69,0,0,0-1.93.76,2.65,2.65,0,0,0-.79,2V80.1h-1.35v-9h1.35Z" transform="translate(-2.9 -2.84)"/><path class="cls-3" d="M122,78.66a3.64,3.64,0,0,1-3.22,1.58,4.08,4.08,0,0,1-3.17-1.35,5.16,5.16,0,0,1,0-6.59A4.18,4.18,0,0,1,118.86,71a3.57,3.57,0,0,1,3.13,1.6V71.1h1.35v9H122V78.66Zm-3,.36a2.85,2.85,0,0,0,2.3-1,4,4,0,0,0,0-4.82,2.85,2.85,0,0,0-2.3-1,3,3,0,0,0-2.34,1,3.86,3.86,0,0,0,0,4.82A3,3,0,0,0,118.95,79Z" transform="translate(-2.9 -2.84)"/><path class="cls-3" d="M127,80.1h-1.35V67.5H127V80.1Z" transform="translate(-2.9 -2.84)"/><path class="cls-3" d="M137.07,68.63a2.1,2.1,0,0,0-1.43.42,1.73,1.73,0,0,0-.48,1.36V71.1h2.09v1.19h-2.09V80.1h-1.35V72.29h-1.55V71.1h1.55V70.31a2.72,2.72,0,0,1,.88-2.21,3.7,3.7,0,0,1,2.45-.74h0.11v1.28h-0.18Z" transform="translate(-2.9 -2.84)"/><path class="cls-3" d="M140.13,67.82v1.76h-1.46V67.82h1.46Zm-1.4,3.28h1.35v9h-1.35v-9Z" transform="translate(-2.9 -2.84)"/><path class="cls-3" d="M143.77,71.1v1.4a4.53,4.53,0,0,1,1.19-1.1,2.9,2.9,0,0,1,1.6-.45,4.27,4.27,0,0,1,1.55.25,3.15,3.15,0,0,1,1.13.76,3.89,3.89,0,0,1,1.12,2.9V80.1H149V74.9a2.76,2.76,0,0,0-.7-2,2.4,2.4,0,0,0-1.82-.74,2.69,2.69,0,0,0-1.93.76,2.65,2.65,0,0,0-.79,2V80.1h-1.35v-9h1.35Z" transform="translate(-2.9 -2.84)"/><path class="cls-3" d="M159.63,78.66a3.64,3.64,0,0,1-3.22,1.58,4.08,4.08,0,0,1-3.17-1.35,5.16,5.16,0,0,1,0-6.59A4.18,4.18,0,0,1,156.49,71a3.57,3.57,0,0,1,3.13,1.6V71.1H161v9h-1.35V78.66Zm-3,.36a2.85,2.85,0,0,0,2.3-1,4,4,0,0,0,0-4.82,2.85,2.85,0,0,0-2.3-1,3,3,0,0,0-2.34,1,3.86,3.86,0,0,0,0,4.82A3,3,0,0,0,156.58,79Z" transform="translate(-2.9 -2.84)"/><path class="cls-3" d="M164.67,71.1v1.4a4.53,4.53,0,0,1,1.19-1.1,2.9,2.9,0,0,1,1.6-.45,4.27,4.27,0,0,1,1.55.25,3.15,3.15,0,0,1,1.13.76,3.89,3.89,0,0,1,1.12,2.9V80.1H169.9V74.9a2.76,2.76,0,0,0-.7-2,2.4,2.4,0,0,0-1.82-.74,2.69,2.69,0,0,0-1.93.76,2.65,2.65,0,0,0-.79,2V80.1h-1.35v-9h1.35Z" transform="translate(-2.9 -2.84)"/><path class="cls-3" d="M177.66,79a2.53,2.53,0,0,0,1.53-.49,2.8,2.8,0,0,0,1-1.26h1.46a4.11,4.11,0,0,1-1.51,2.14,4.56,4.56,0,0,1-2.74.83,4.18,4.18,0,0,1-3.22-1.35,5.1,5.1,0,0,1,0-6.59A4.18,4.18,0,0,1,177.37,71a4.57,4.57,0,0,1,2.74.83,4.11,4.11,0,0,1,1.51,2.14h-1.46a2.81,2.81,0,0,0-1-1.26,2.53,2.53,0,0,0-1.53-.49,3.58,3.58,0,0,0-1.47.27,2.94,2.94,0,0,0-1,.74,3.74,3.74,0,0,0,0,4.82A3.16,3.16,0,0,0,177.66,79Z" transform="translate(-2.9 -2.84)"/><path class="cls-3" d="M187.31,79a2.72,2.72,0,0,0,2.61-1.51h1.48a4.34,4.34,0,0,1-1.48,2,4.28,4.28,0,0,1-2.62.76A4.35,4.35,0,0,1,184,78.89a4.61,4.61,0,0,1-1.24-3.29,4.69,4.69,0,0,1,1.19-3.29,4.65,4.65,0,0,1,6.55,0,4.69,4.69,0,0,1,1.19,3.29v0.54h-7.54a3.26,3.26,0,0,0,1,2.05A3,3,0,0,0,187.31,79Zm-0.11-6.84a3,3,0,0,0-2.09.77,3.2,3.2,0,0,0-1,1.93h6.12a3.2,3.2,0,0,0-1-1.93A3,3,0,0,0,187.2,72.18Z" transform="translate(-2.9 -2.84)"/><path class="cls-3" d="M198.5,72.47A3,3,0,0,1,201.24,71a3.09,3.09,0,0,1,1.67.48,3.26,3.26,0,0,1,1.2,1.34A3.46,3.46,0,0,1,206,71.15a3.3,3.3,0,0,1,1.18-.2,3.14,3.14,0,0,1,1.26.26,3.3,3.3,0,0,1,1.07.75,3.81,3.81,0,0,1,1,2.7V80.1h-1.35V74.7a2.69,2.69,0,0,0-.63-1.84,2.08,2.08,0,0,0-1.6-.68,2.35,2.35,0,0,0-1.71.67,2.46,2.46,0,0,0-.72,1.87V80.1h-1.35V74.7a2.69,2.69,0,0,0-.63-1.84,2.08,2.08,0,0,0-1.6-.68,2.35,2.35,0,0,0-1.71.67,2.46,2.46,0,0,0-.72,1.87V80.1h-1.35v-9h1.35v1.37Z" transform="translate(-2.9 -2.84)"/><path class="cls-3" d="M219.8,78.66a3.64,3.64,0,0,1-3.22,1.58,4.08,4.08,0,0,1-3.17-1.35,5.16,5.16,0,0,1,0-6.59A4.18,4.18,0,0,1,216.67,71a3.57,3.57,0,0,1,3.13,1.6V71.1h1.35v9H219.8V78.66Zm-3,.36a2.85,2.85,0,0,0,2.3-1,4,4,0,0,0,0-4.82,2.85,2.85,0,0,0-2.3-1,3,3,0,0,0-2.34,1,3.86,3.86,0,0,0,0,4.82A3,3,0,0,0,216.76,79Z" transform="translate(-2.9 -2.84)"/><path class="cls-3" d="M224.84,71.1v1.4a4.53,4.53,0,0,1,1.19-1.1,2.9,2.9,0,0,1,1.6-.45,4.27,4.27,0,0,1,1.55.25,3.15,3.15,0,0,1,1.13.76,3.89,3.89,0,0,1,1.12,2.9V80.1h-1.35V74.9a2.76,2.76,0,0,0-.7-2,2.4,2.4,0,0,0-1.82-.74,2.69,2.69,0,0,0-1.93.76,2.65,2.65,0,0,0-.79,2V80.1h-1.35v-9h1.35Z" transform="translate(-2.9 -2.84)"/><path class="cls-3" d="M240.7,78.66a3.64,3.64,0,0,1-3.22,1.58,4.08,4.08,0,0,1-3.17-1.35,5.16,5.16,0,0,1,0-6.59A4.18,4.18,0,0,1,237.56,71a3.57,3.57,0,0,1,3.13,1.6V71.1H242v9H240.7V78.66Zm-3,.36a2.85,2.85,0,0,0,2.3-1,4,4,0,0,0,0-4.82,2.85,2.85,0,0,0-2.3-1,3,3,0,0,0-2.34,1,3.86,3.86,0,0,0,0,4.82A3,3,0,0,0,237.65,79Z" transform="translate(-2.9 -2.84)"/><path class="cls-3" d="M251.41,72.54V71.1h1.35v8.73a3.82,3.82,0,0,1-1.11,3,4.23,4.23,0,0,1-3,1,5.14,5.14,0,0,1-2.93-.72,3.57,3.57,0,0,1-1.43-1.91h1.49a2.52,2.52,0,0,0,2.63,1.4,3.06,3.06,0,0,0,2.27-.72,2.92,2.92,0,0,0,.7-2.12V78.5a3.66,3.66,0,0,1-3.22,1.6A4.1,4.1,0,0,1,245,78.77a5,5,0,0,1,0-6.48A4.22,4.22,0,0,1,248.28,71,3.55,3.55,0,0,1,251.41,72.54Zm-3,6.34a3.14,3.14,0,0,0,1.31-.26,3,3,0,0,0,1-.71,3.89,3.89,0,0,0,0-4.75,3,3,0,0,0-2.3-1,3,3,0,0,0-2.34,1,3.76,3.76,0,0,0,0,4.75A3,3,0,0,0,248.36,78.88Z" transform="translate(-2.9 -2.84)"/><path class="cls-3" d="M259.11,79a2.72,2.72,0,0,0,2.61-1.51h1.48a4.34,4.34,0,0,1-1.48,2,4.28,4.28,0,0,1-2.62.76,4.35,4.35,0,0,1-3.31-1.35,4.61,4.61,0,0,1-1.24-3.29,4.69,4.69,0,0,1,1.19-3.29,4.65,4.65,0,0,1,6.55,0,4.69,4.69,0,0,1,1.19,3.29v0.54h-7.54a3.26,3.26,0,0,0,1,2.05A3,3,0,0,0,259.11,79ZM259,72.18a3,3,0,0,0-2.09.77,3.2,3.2,0,0,0-1,1.93h6.12a3.2,3.2,0,0,0-1-1.93A3,3,0,0,0,259,72.18Z" transform="translate(-2.9 -2.84)"/><path class="cls-3" d="M266.47,72.47A3,3,0,0,1,269.21,71a3.09,3.09,0,0,1,1.67.48,3.26,3.26,0,0,1,1.2,1.34A3.46,3.46,0,0,1,274,71.15a3.3,3.3,0,0,1,1.18-.2,3.14,3.14,0,0,1,1.26.26,3.3,3.3,0,0,1,1.07.75,3.81,3.81,0,0,1,1,2.7V80.1h-1.35V74.7a2.69,2.69,0,0,0-.63-1.84,2.08,2.08,0,0,0-1.6-.68,2.35,2.35,0,0,0-1.71.67,2.46,2.46,0,0,0-.72,1.87V80.1h-1.35V74.7a2.69,2.69,0,0,0-.63-1.84,2.08,2.08,0,0,0-1.6-.68,2.35,2.35,0,0,0-1.71.67,2.46,2.46,0,0,0-.72,1.87V80.1h-1.35v-9h1.35v1.37Z" transform="translate(-2.9 -2.84)"/><path class="cls-3" d="M284.76,79a2.72,2.72,0,0,0,2.61-1.51h1.48a4.34,4.34,0,0,1-1.48,2,4.28,4.28,0,0,1-2.62.76,4.35,4.35,0,0,1-3.31-1.35,4.61,4.61,0,0,1-1.24-3.29,4.69,4.69,0,0,1,1.19-3.29,4.65,4.65,0,0,1,6.55,0,4.69,4.69,0,0,1,1.19,3.29v0.54h-7.54a3.26,3.26,0,0,0,1,2.05A3,3,0,0,0,284.76,79Zm-0.11-6.84a3,3,0,0,0-2.09.77,3.2,3.2,0,0,0-1,1.93h6.12a3.2,3.2,0,0,0-1-1.93A3,3,0,0,0,284.65,72.18Z" transform="translate(-2.9 -2.84)"/><path class="cls-3" d="M292.12,71.1v1.4a4.53,4.53,0,0,1,1.19-1.1,2.9,2.9,0,0,1,1.6-.45,4.27,4.27,0,0,1,1.55.25,3.15,3.15,0,0,1,1.13.76,3.88,3.88,0,0,1,1.12,2.9V80.1h-1.35V74.9a2.75,2.75,0,0,0-.7-2,2.4,2.4,0,0,0-1.82-.74,2.69,2.69,0,0,0-1.93.76,2.65,2.65,0,0,0-.79,2V80.1h-1.35v-9h1.35Z" transform="translate(-2.9 -2.84)"/><path class="cls-3" d="M301.72,80.1V72.29h-1.84V71.1h1.84V67.88h1.35V71.1h2.07v1.19h-2.07V80.1h-1.35Z" transform="translate(-2.9 -2.84)"/><path class="cls-3" d="M317.47,78.66a3.64,3.64,0,0,1-3.22,1.58,4.08,4.08,0,0,1-3.17-1.35,5.16,5.16,0,0,1,0-6.59A4.19,4.19,0,0,1,314.33,71a3.57,3.57,0,0,1,3.13,1.6V71.1h1.35v9h-1.35V78.66Zm-3,.36a2.85,2.85,0,0,0,2.3-1,4,4,0,0,0,0-4.82,2.85,2.85,0,0,0-2.3-1,3,3,0,0,0-2.34,1,3.86,3.86,0,0,0,0,4.82A3,3,0,0,0,314.42,79Z" transform="translate(-2.9 -2.84)"/><path class="cls-3" d="M322.51,72.54A3.64,3.64,0,0,1,325.73,71a4,4,0,0,1,3.15,1.35,5.1,5.1,0,0,1,0,6.59,4.13,4.13,0,0,1-3.24,1.35,3.57,3.57,0,0,1-3.13-1.6v5h-1.35V71.1h1.35v1.44Zm3-.36a2.85,2.85,0,0,0-2.3,1,4,4,0,0,0,0,4.82,2.85,2.85,0,0,0,2.3,1,3,3,0,0,0,2.34-1,3.86,3.86,0,0,0,0-4.82A3,3,0,0,0,325.55,72.18Z" transform="translate(-2.9 -2.84)"/><path class="cls-3" d="M333.2,72.54A3.64,3.64,0,0,1,336.42,71a4,4,0,0,1,3.15,1.35,5.1,5.1,0,0,1,0,6.59,4.13,4.13,0,0,1-3.24,1.35,3.57,3.57,0,0,1-3.13-1.6v5h-1.35V71.1h1.35v1.44Zm3-.36a2.85,2.85,0,0,0-2.3,1,4,4,0,0,0,0,4.82,2.85,2.85,0,0,0,2.3,1,3,3,0,0,0,2.34-1,3.86,3.86,0,0,0,0-4.82A3,3,0,0,0,336.24,72.18Z" transform="translate(-2.9 -2.84)"/><path class="cls-3" d="M343.89,80.1h-1.35V67.5h1.35V80.1Z" transform="translate(-2.9 -2.84)"/><path class="cls-3" d="M347.63,67.82v1.76h-1.46V67.82h1.46Zm-1.4,3.28h1.35v9h-1.35v-9Z" transform="translate(-2.9 -2.84)"/><path class="cls-3" d="M354.08,79a2.53,2.53,0,0,0,1.53-.49,2.8,2.8,0,0,0,1-1.26H358a4.11,4.11,0,0,1-1.51,2.14,4.57,4.57,0,0,1-2.74.83,4.17,4.17,0,0,1-3.22-1.35,5.1,5.1,0,0,1,0-6.59A4.18,4.18,0,0,1,353.79,71a4.57,4.57,0,0,1,2.74.83A4.11,4.11,0,0,1,358,73.93h-1.46a2.81,2.81,0,0,0-1-1.26,2.53,2.53,0,0,0-1.53-.49,3.57,3.57,0,0,0-1.47.27,2.94,2.94,0,0,0-1,.74,3.74,3.74,0,0,0,0,4.82A3.16,3.16,0,0,0,354.08,79Z" transform="translate(-2.9 -2.84)"/><path class="cls-3" d="M366.73,78.66a3.64,3.64,0,0,1-3.22,1.58,4.08,4.08,0,0,1-3.17-1.35,5.16,5.16,0,0,1,0-6.59A4.19,4.19,0,0,1,363.6,71a3.57,3.57,0,0,1,3.13,1.6V71.1h1.35v9h-1.35V78.66Zm-3,.36a2.85,2.85,0,0,0,2.3-1,4,4,0,0,0,0-4.82,2.85,2.85,0,0,0-2.3-1,3,3,0,0,0-2.34,1,3.86,3.86,0,0,0,0,4.82A3,3,0,0,0,363.69,79Z" transform="translate(-2.9 -2.84)"/><path class="cls-3" d="M371.39,80.1V72.29h-1.84V71.1h1.84V67.88h1.35V71.1h2.07v1.19h-2.07V80.1h-1.35Z" transform="translate(-2.9 -2.84)"/><path class="cls-3" d="M377.69,67.82v1.76h-1.46V67.82h1.46Zm-1.4,3.28h1.35v9h-1.35v-9Z" transform="translate(-2.9 -2.84)"/><path class="cls-3" d="M383.88,71a4.27,4.27,0,0,1,3.28,1.35,5.16,5.16,0,0,1,0,6.59,4.65,4.65,0,0,1-6.55,0,5.16,5.16,0,0,1,0-6.59A4.28,4.28,0,0,1,383.88,71Zm0,8.06a2.85,2.85,0,0,0,2.3-1,4,4,0,0,0,0-4.82,3.14,3.14,0,0,0-4.61,0,4,4,0,0,0,0,4.82A2.85,2.85,0,0,0,383.88,79Z" transform="translate(-2.9 -2.84)"/><path class="cls-3" d="M391.48,71.1v1.4a4.53,4.53,0,0,1,1.19-1.1,2.9,2.9,0,0,1,1.6-.45,4.28,4.28,0,0,1,1.55.25A3.15,3.15,0,0,1,397,72a3.88,3.88,0,0,1,1.12,2.9V80.1h-1.35V74.9a2.75,2.75,0,0,0-.7-2,2.4,2.4,0,0,0-1.82-.74,2.69,2.69,0,0,0-1.93.76,2.65,2.65,0,0,0-.79,2V80.1h-1.35v-9h1.35Z" transform="translate(-2.9 -2.84)"/></svg>